<svg xmlns="http://www.w3.org/2000/svg" width="1500" height="939"><svg viewBox="0 0 396 248" data-background-color="#ffffff" height="939" width="1500" xmlns="http://www.w3.org/2000/svg" xmlns:xlink="http://www.w3.org/1999/xlink" transform="translate(-.91 133.06)"><svg viewBox="0 0 395.52 247.2" height="247.2" width="395.52" id="tight-bounds" transform="translate(.24 .4)"><svg/><svg viewBox="0 0 395.52 247.2" height="247.2" width="395.52"><svg viewBox="0 0 244.431 72.969" height="72.969" width="244.431" transform="translate(75.544 87.115)"><svg viewBox="0 0 244.431 72.969" height="72.969" width="244.431"><svg viewBox="0 0 244.431 72.969" height="72.969" width="244.431"><svg viewBox="0 0 244.431 72.969" height="72.969" width="244.431"><g id="textblocktransform"><svg viewBox="0 0 244.431 72.969" height="72.969" width="244.431" id="textblock"><svg viewBox="0 0 244.431 39.356" height="39.356" width="244.431"><svg width="244.431" viewBox="3.85 -36.75 231.33 37.25" height="39.356" data-palette-color="#a61713"><path d="M3.85 0v-36.75H21.1v4.85H9.4v10.4h9.1v4.9H9.4V0H3.85ZM26.3 0v-22.95h5.6V0h-5.6Zm2.75-27.25q-1.55 0-2.6-1.05t-1.05-2.6q0-1.4 1.05-2.4t2.6-1q1.5 0 2.55 1 1.05 1 1.05 2.4 0 1.55-1.03 2.6-1.02 1.05-2.57 1.05ZM39.84 0v-36.75h5.36V0h-5.36Zm12.95 0v-22.95h5.4v4.15q1.1-2.35 3.23-3.55 2.12-1.2 4.87-1.2 6.15.05 7.55 4.25 1.1-1.95 3.3-3.1 2.2-1.15 4.65-1.15 3.6 0 5.45 1.37 1.85 1.38 2.48 3.9.62 2.53.62 6.78V0h-5.45v-11.55q0-4.05-.82-5.8-.83-1.75-3.18-1.75-3.15 0-4.77 2.12-1.63 2.13-1.63 5.58V0h-5.4v-12.35q0-2.65-.2-3.95-.2-1.3-1.1-2.05-.9-.75-2.9-.75-1.75 0-3.27 1.05-1.53 1.05-2.45 2.82-.93 1.78-.93 3.83V0h-5.45Zm57 0v-36.75h17.25v4.85h-11.7v10.4h9.1v4.9h-9.1V0h-5.55Zm22.44 0v-22.95h5.61V0h-5.61Zm2.75-27.25q-1.54 0-2.6-1.05-1.04-1.05-1.04-2.6 0-1.4 1.04-2.4 1.06-1 2.6-1 1.5 0 2.55 1 1.06 1 1.06 2.4 0 1.55-1.03 2.6t-2.58 1.05ZM156.18.5q-4.1 0-6.85-1.63-2.75-1.62-4.05-4.35-1.3-2.72-1.3-5.97 0-3.65 1.53-6.4 1.52-2.75 4.22-4.23 2.7-1.47 6.1-1.47 5.3 0 7.88 2.92 2.57 2.93 2.57 8.23 0 1.35-.15 2.8h-16.5q.55 3.05 2.18 4.4 1.62 1.35 4.52 1.35 2.4 0 3.95-.4 1.55-.4 2.85-1.1l1.65 3.85q-1.25.8-3.4 1.4-2.15.6-5.2.6Zm-6.55-13.85h11.4q.05-3.1-1.35-4.38-1.4-1.27-4-1.27-5.25 0-6.05 5.65ZM179.83.5q-2.4 0-4.98-.63-2.57-.62-3.67-1.47l1.8-4.25q3 2.1 6.85 2.1 3.85 0 3.85-2.25 0-1-.8-1.55t-2.85-1.3l-1.9-.7q-3-1.2-4.75-2.88-1.75-1.67-1.75-4.42 0-3.15 2.47-4.93 2.48-1.77 6.63-1.77 2.05 0 4.02.45 1.98.45 3.03 1.15l-1.95 4.3q-.65-.65-2.08-1.13-1.42-.47-3.17-.47-3.55 0-3.55 2.15 0 1.2.95 1.82.95.63 3.1 1.38.2.05 1.55.55 3.2 1.25 4.75 2.85 1.55 1.6 1.55 4.1 0 3.4-2.58 5.15Q183.78.5 179.83.5Zm16.7-.5v-18.55h-4.05v-4.4h4.05v-9.35l5.45-1.2v10.55h5.3v4.4h-5.3V0h-5.45Zm25.29.5q-3.1 0-5.72-1.48-2.63-1.47-4.2-4.2-1.58-2.72-1.58-6.37 0-3.6 1.38-6.3 1.37-2.7 3.93-4.2 2.55-1.5 6-1.5 2 0 3.75.7t2.94 1.72q1.21 1.03 1.61 2.03l.1-3.85h5.15V0h-5.11l-.1-4.05q-.84 1.8-3.09 3.17Q224.63.5 221.82.5Zm.9-4.5q2.85 0 4.81-1.98 1.94-1.97 1.94-5.17v-.35q0-2.15-.9-3.85-.89-1.7-2.44-2.65-1.56-.95-3.41-.95-3.19 0-4.94 2.07-1.75 2.08-1.75 5.38 0 3.35 1.72 5.42Q219.47-4 222.72-4Z" opacity="1" fill="#a61713" class="wordmark-text-0" data-fill-palette-color="primary" id="text-0"/></svg></svg><svg viewBox="0 0 244.431 24.322" height="24.322" width="244.431" transform="translate(0 48.647)"><svg width="244.431" viewBox="3.7 -35.6 364.3 36.25" height="24.322" data-palette-color="#a61713"><path d="M10.1 0H3.7v-24.9h5.75l.15 3.3q.98-1.5 2.71-2.7 1.74-1.2 4.64-1.2 2.53 0 4.2 1.12 1.68 1.13 2.53 3.18.95-1.58 2.73-2.94 1.79-1.36 4.99-1.36 3.75 0 5.6 2.4 1.85 2.4 1.85 6.65V0H32.5v-15.8q0-2.08-.8-3.36-.8-1.29-2.6-1.29-1.75 0-3.17 1.29-1.43 1.28-1.43 3.36V0h-6.4v-15.8q0-2.08-.91-3.41-.91-1.34-2.69-1.34-1.8 0-3.1 1.34-1.3 1.33-1.3 3.41V0Zm88.83.5q-5.5 0-8.5-3.45t-3-9.55q0-6.15 3.1-9.58 3.1-3.42 8.6-3.42 5.53 0 8.41 3.54 2.89 3.53 2.89 9.46 0 5.92-2.99 9.46Q104.46.5 98.93.5Zm.1-5q4.75 0 4.75-8 0-8.05-4.75-8.05-2.35 0-3.65 1.86-1.3 1.87-1.3 6.19 0 4.3 1.3 6.15 1.3 1.85 3.65 1.85ZM169.76 0h-4.45l-10.1-24.9h7l4.3 12.45 1.1 4.1 1-4.1 4.15-12.45h6.6L169.76 0Zm62.78-28.95h-7v-6.65h7v6.65ZM232.29 0h-6.5v-24.9h6.5V0Zm60.53.65q-4.2 0-6.77-1.76-2.58-1.77-3.75-4.68-1.18-2.91-1.18-6.36 0-3.63 1.34-6.66 1.34-3.04 3.92-4.87 2.59-1.82 6.34-1.82 5.6 0 7.83 3.24 2.22 3.23 2.22 9.16 0 .52-.02 1.32-.03.8-.08 1.38h-15q.15 2.95 1.66 4.62 1.52 1.68 4.54 1.68 1.55 0 3.33-.69 1.77-.69 2.62-1.66l2 4.75q-1 .67-3.16 1.51t-5.84.84Zm-5.2-14.95h8.8q0-2.63-.46-4.01-.46-1.39-1.26-1.92-.8-.52-1.83-.52-2.55 0-3.82 1.89-1.28 1.88-1.43 4.56ZM358.45.45q-2.72 0-4.46-.51-1.74-.52-2.7-1.18-.96-.66-1.34-1.11l1.85-4.75q1.1.9 2.82 1.77 1.71.88 3.98.88 1.78 0 2.49-.73.71-.72.71-1.57 0-1.18-1.62-2.13-1.63-.95-3.78-1.87-1.27-.55-2.7-1.4-1.42-.85-2.43-2.25-1.02-1.4-1.02-3.6 0-3.38 2.47-5.39 2.46-2.01 6.98-2.01 2.9 0 4.92.86 2.01.86 2.68 1.54l-1.7 4.5q-.97-.75-2.47-1.43-1.5-.67-3.23-.67-1.9 0-2.65.5t-.75 1.6q0 1.22 1.34 2.01 1.34.79 3.21 1.54 3.13 1.22 5.04 3.01Q368-10.15 368-7.4q0 2.05-.95 3.84-.95 1.78-3.05 2.9-2.1 1.11-5.55 1.11Z" opacity="1" fill="#a61713" class="slogan-text-1" data-fill-palette-color="secondary" id="text-1"/></svg></svg></svg></g></svg></svg></svg></svg><path d="M84.441 77.824a122.216 122.216 0 0 1 226.638 0h-3.549a118.666 118.666 0 0 0-219.54 0h-3.549m0 91.552a122.216 122.216 0 0 0 226.638 0h-3.549a118.666 118.666 0 0 1-219.54 0h-3.549" fill="#a61713" stroke="transparent" data-fill-palette-color="tertiary"/></svg></svg></svg></svg>