<svg xmlns="http://www.w3.org/2000/svg" version="1.1" xmlns:xlink="http://www.w3.org/1999/xlink" xmlns:svgjs="http://svgjs.dev/svgjs" width="1500" height="939" viewBox="0 0 1500 939"><g transform="matrix(1,0,0,1,-0.9090909090909918,133.05986217008797)"><svg viewBox="0 0 396 248" data-background-color="#ffffff" preserveAspectRatio="xMidYMid meet" height="939" width="1500" xmlns="http://www.w3.org/2000/svg" xmlns:xlink="http://www.w3.org/1999/xlink"><g id="tight-bounds" transform="matrix(1,0,0,1,0.2400000000000091,0.4000000000000057)"><svg viewBox="0 0 395.52 247.2" height="247.2" width="395.52"><g><svg></svg></g><g><svg viewBox="0 0 395.52 247.2" height="247.2" width="395.52"><g transform="matrix(1,0,0,1,75.54432,87.11526182446475)"><svg viewBox="0 0 244.43135999999998 72.96947635107048" height="72.96947635107048" width="244.43135999999998"><g><svg viewBox="0 0 244.43135999999998 72.96947635107048" height="72.96947635107048" width="244.43135999999998"><g><svg viewBox="0 0 244.43135999999998 72.96947635107048" height="72.96947635107048" width="244.43135999999998"><g><svg viewBox="0 0 244.43135999999998 72.96947635107048" height="72.96947635107048" width="244.43135999999998"><g id="textblocktransform"><svg viewBox="0 0 244.43135999999998 72.96947635107048" height="72.96947635107048" width="244.43135999999998" id="textblock"><g><svg viewBox="0 0 244.43135999999998 39.35624880051869" height="39.35624880051869" width="244.43135999999998"><g transform="matrix(1,0,0,1,0,0)"><svg width="244.43135999999998" viewBox="3.85 -36.75 231.33 37.25" height="39.35624880051869" data-palette-color="#a61713"><path d="M3.85 0L3.85-36.75 21.1-36.75 21.1-31.9 9.4-31.9 9.4-21.5 18.5-21.5 18.5-16.6 9.4-16.6 9.4 0 3.85 0ZM26.3 0L26.3-22.95 31.9-22.95 31.9 0 26.3 0ZM29.05-27.25Q27.5-27.25 26.45-28.3 25.4-29.35 25.4-30.9L25.4-30.9Q25.4-32.3 26.45-33.3 27.5-34.3 29.05-34.3L29.05-34.3Q30.55-34.3 31.6-33.3 32.65-32.3 32.65-30.9L32.65-30.9Q32.65-29.35 31.62-28.3 30.6-27.25 29.05-27.25L29.05-27.25ZM39.84 0L39.84-36.75 45.2-36.75 45.2 0 39.84 0ZM52.79 0L52.79-22.95 58.19-22.95 58.19-18.8Q59.29-21.15 61.42-22.35 63.54-23.55 66.29-23.55L66.29-23.55Q72.44-23.5 73.84-19.3L73.84-19.3Q74.94-21.25 77.14-22.4 79.34-23.55 81.79-23.55L81.79-23.55Q85.39-23.55 87.24-22.18 89.09-20.8 89.72-18.28 90.34-15.75 90.34-11.5L90.34-11.5 90.34 0 84.89 0 84.89-11.55Q84.89-15.6 84.07-17.35 83.24-19.1 80.89-19.1L80.89-19.1Q77.74-19.1 76.12-16.98 74.49-14.85 74.49-11.4L74.49-11.4 74.49 0 69.09 0 69.09-12.35Q69.09-15 68.89-16.3 68.69-17.6 67.79-18.35 66.89-19.1 64.89-19.1L64.89-19.1Q63.14-19.1 61.62-18.05 60.09-17 59.17-15.23 58.24-13.45 58.24-11.4L58.24-11.4 58.24 0 52.79 0ZM109.79 0L109.79-36.75 127.04-36.75 127.04-31.9 115.34-31.9 115.34-21.5 124.44-21.5 124.44-16.6 115.34-16.6 115.34 0 109.79 0ZM132.23 0L132.23-22.95 137.84-22.95 137.84 0 132.23 0ZM134.98-27.25Q133.44-27.25 132.38-28.3 131.34-29.35 131.34-30.9L131.34-30.9Q131.34-32.3 132.38-33.3 133.44-34.3 134.98-34.3L134.98-34.3Q136.48-34.3 137.53-33.3 138.59-32.3 138.59-30.9L138.59-30.9Q138.59-29.35 137.56-28.3 136.53-27.25 134.98-27.25L134.98-27.25ZM156.18 0.5Q152.08 0.5 149.33-1.13 146.58-2.75 145.28-5.48 143.98-8.2 143.98-11.45L143.98-11.45Q143.98-15.1 145.51-17.85 147.03-20.6 149.73-22.08 152.43-23.55 155.83-23.55L155.83-23.55Q161.13-23.55 163.71-20.63 166.28-17.7 166.28-12.4L166.28-12.4Q166.28-11.05 166.13-9.6L166.13-9.6 149.63-9.6Q150.18-6.55 151.81-5.2 153.43-3.85 156.33-3.85L156.33-3.85Q158.73-3.85 160.28-4.25 161.83-4.65 163.13-5.35L163.13-5.35 164.78-1.5Q163.53-0.7 161.38-0.1 159.23 0.5 156.18 0.5L156.18 0.5ZM149.63-13.35L161.03-13.35Q161.08-16.45 159.68-17.73 158.28-19 155.68-19L155.68-19Q150.43-19 149.63-13.35L149.63-13.35ZM179.83 0.5Q177.43 0.5 174.85-0.13 172.28-0.75 171.18-1.6L171.18-1.6 172.98-5.85Q175.98-3.75 179.83-3.75L179.83-3.75Q183.68-3.75 183.68-6L183.68-6Q183.68-7 182.88-7.55 182.08-8.1 180.03-8.85L180.03-8.85 178.13-9.55Q175.13-10.75 173.38-12.43 171.63-14.1 171.63-16.85L171.63-16.85Q171.63-20 174.1-21.78 176.58-23.55 180.73-23.55L180.73-23.55Q182.78-23.55 184.75-23.1 186.73-22.65 187.78-21.95L187.78-21.95 185.83-17.65Q185.18-18.3 183.75-18.78 182.33-19.25 180.58-19.25L180.58-19.25Q177.03-19.25 177.03-17.1L177.03-17.1Q177.03-15.9 177.98-15.28 178.93-14.65 181.08-13.9L181.08-13.9Q181.28-13.85 182.63-13.35L182.63-13.35Q185.83-12.1 187.38-10.5 188.93-8.9 188.93-6.4L188.93-6.4Q188.93-3 186.35-1.25 183.78 0.5 179.83 0.5L179.83 0.5ZM196.53 0L196.53-18.55 192.48-18.55 192.48-22.95 196.53-22.95 196.53-32.3 201.98-33.5 201.98-22.95 207.28-22.95 207.28-18.55 201.98-18.55 201.98 0 196.53 0ZM221.82 0.5Q218.72 0.5 216.1-0.98 213.47-2.45 211.9-5.18 210.32-7.9 210.32-11.55L210.32-11.55Q210.32-15.15 211.7-17.85 213.07-20.55 215.63-22.05 218.18-23.55 221.63-23.55L221.63-23.55Q223.63-23.55 225.38-22.85 227.13-22.15 228.32-21.13 229.53-20.1 229.93-19.1L229.93-19.1 230.03-22.95 235.18-22.95 235.18 0 230.07 0 229.97-4.05Q229.13-2.25 226.88-0.88 224.63 0.5 221.82 0.5L221.82 0.5ZM222.72-4Q225.57-4 227.53-5.98 229.47-7.95 229.47-11.15L229.47-11.15 229.47-11.5Q229.47-13.65 228.57-15.35 227.68-17.05 226.13-18 224.57-18.95 222.72-18.95L222.72-18.95Q219.53-18.95 217.78-16.88 216.03-14.8 216.03-11.5L216.03-11.5Q216.03-8.15 217.75-6.08 219.47-4 222.72-4L222.72-4Z" opacity="1" transform="matrix(1,0,0,1,0,0)" fill="#a61713" class="wordmark-text-0" data-fill-palette-color="primary" id="text-0"></path></svg></g></svg></g><g transform="matrix(1,0,0,1,0,48.64731459234994)"><svg viewBox="0 0 244.43135999999998 24.32216175872055" height="24.32216175872055" width="244.43135999999998"><g transform="matrix(1,0,0,1,0,0)"><svg width="244.43135999999998" viewBox="3.7 -35.6 364.3 36.25" height="24.32216175872055" data-palette-color="#a61713"><path d="M10.1 0L3.7 0 3.7-24.9 9.45-24.9 9.6-21.6Q10.58-23.1 12.31-24.3 14.05-25.5 16.95-25.5L16.95-25.5Q19.48-25.5 21.15-24.38 22.83-23.25 23.68-21.2L23.68-21.2Q24.63-22.78 26.41-24.14 28.2-25.5 31.4-25.5L31.4-25.5Q35.15-25.5 37-23.1 38.85-20.7 38.85-16.45L38.85-16.45 38.85 0 32.5 0 32.5-15.8Q32.5-17.88 31.7-19.16 30.9-20.45 29.1-20.45L29.1-20.45Q27.35-20.45 25.93-19.16 24.5-17.88 24.5-15.8L24.5-15.8 24.5 0 18.1 0 18.1-15.8Q18.1-17.88 17.19-19.21 16.28-20.55 14.5-20.55L14.5-20.55Q12.7-20.55 11.4-19.21 10.1-17.88 10.1-15.8L10.1-15.8 10.1 0ZM98.93 0.5L98.93 0.5Q93.43 0.5 90.43-2.95 87.43-6.4 87.43-12.5L87.43-12.5Q87.43-18.65 90.53-22.08 93.63-25.5 99.13-25.5L99.13-25.5Q104.66-25.5 107.54-21.96 110.43-18.43 110.43-12.5L110.43-12.5Q110.43-6.58 107.44-3.04 104.46 0.5 98.93 0.5ZM99.03-4.5L99.03-4.5Q103.78-4.5 103.78-12.5L103.78-12.5Q103.78-20.55 99.03-20.55L99.03-20.55Q96.68-20.55 95.38-18.69 94.08-16.82 94.08-12.5L94.08-12.5Q94.08-8.2 95.38-6.35 96.68-4.5 99.03-4.5ZM169.76 0L165.31 0 155.21-24.9 162.21-24.9 166.51-12.45 167.61-8.35 168.61-12.45 172.76-24.9 179.36-24.9 169.76 0ZM232.54-28.95L225.54-28.95 225.54-35.6 232.54-35.6 232.54-28.95ZM232.29 0L225.79 0 225.79-24.9 232.29-24.9 232.29 0ZM292.82 0.65L292.82 0.65Q288.62 0.65 286.05-1.11 283.47-2.88 282.3-5.79 281.12-8.7 281.12-12.15L281.12-12.15Q281.12-15.78 282.46-18.81 283.8-21.85 286.38-23.68 288.97-25.5 292.72-25.5L292.72-25.5Q298.32-25.5 300.55-22.26 302.77-19.03 302.77-13.1L302.77-13.1Q302.77-12.58 302.75-11.78 302.72-10.98 302.67-10.4L302.67-10.4 287.67-10.4Q287.82-7.45 289.33-5.78 290.85-4.1 293.87-4.1L293.87-4.1Q295.42-4.1 297.2-4.79 298.97-5.48 299.82-6.45L299.82-6.45 301.82-1.7Q300.82-1.03 298.66-0.19 296.5 0.65 292.82 0.65ZM287.62-14.3L287.62-14.3 296.42-14.3Q296.42-16.93 295.96-18.31 295.5-19.7 294.7-20.23 293.9-20.75 292.87-20.75L292.87-20.75Q290.32-20.75 289.05-18.86 287.77-16.98 287.62-14.3ZM358.45 0.45L358.45 0.45Q355.73 0.45 353.99-0.06 352.25-0.58 351.29-1.24 350.33-1.9 349.95-2.35L349.95-2.35 351.8-7.1Q352.9-6.2 354.62-5.33 356.33-4.45 358.6-4.45L358.6-4.45Q360.38-4.45 361.09-5.18 361.8-5.9 361.8-6.75L361.8-6.75Q361.8-7.93 360.18-8.88 358.55-9.83 356.4-10.75L356.4-10.75Q355.13-11.3 353.7-12.15 352.28-13 351.27-14.4 350.25-15.8 350.25-18L350.25-18Q350.25-21.38 352.72-23.39 355.18-25.4 359.7-25.4L359.7-25.4Q362.6-25.4 364.62-24.54 366.63-23.68 367.3-23L367.3-23 365.6-18.5Q364.63-19.25 363.13-19.93 361.63-20.6 359.9-20.6L359.9-20.6Q358-20.6 357.25-20.1 356.5-19.6 356.5-18.5L356.5-18.5Q356.5-17.28 357.84-16.49 359.18-15.7 361.05-14.95L361.05-14.95Q364.18-13.73 366.09-11.94 368-10.15 368-7.4L368-7.4Q368-5.35 367.05-3.56 366.1-1.78 364-0.66 361.9 0.45 358.45 0.45Z" opacity="1" transform="matrix(1,0,0,1,0,0)" fill="#a61713" class="slogan-text-1" data-fill-palette-color="secondary" id="text-1"></path></svg></g></svg></g></svg></g></svg></g><g></g></svg></g></svg></g></svg></g><g><path d="M84.441 77.824A122.216 122.216 0 0 1 311.079 77.824L307.53 77.824A118.666 118.666 0 0 0 87.99 77.824L84.441 77.824M84.441 169.376A122.216 122.216 0 0 0 311.079 169.376L307.53 169.376A118.666 118.666 0 0 1 87.99 169.376L84.441 169.376" fill="#a61713" stroke="transparent" data-fill-palette-color="tertiary"></path></g></svg></g><defs></defs></svg><rect width="395.52" height="247.2" fill="none" stroke="none" visibility="hidden"></rect></g></svg></g></svg>